<?xml version="1.0" encoding="utf-8"?>
<!-- Generator: Adobe Illustrator 23.0.3, SVG Export Plug-In . SVG Version: 6.00 Build 0)  -->
<svg version="1.1" id="Capa_1" xmlns="http://www.w3.org/2000/svg" xmlns:xlink="http://www.w3.org/1999/xlink" x="0px" y="0px"
	 viewBox="0 0 512 512" style="enable-background:new 0 0 512 512;" xml:space="preserve">
<style type="text/css">
	.st0{fill:#0691E0;}
</style>
<g>
	<g>
		<path class="st0" d="M386.5,76.5C357,55.3,320.8,42.9,281.7,42.9c-6.7,0-12.1,5.4-12.1,12.1v168.3c0,6.7,5.4,12.1,12.1,12.1H450
			c6.7,0,12.1-5.4,12.1-12.1c0-51.7-21.8-98.3-56.8-131.2L386.5,76.5z M437.4,211.1H293.9V67.6c29.4,2.3,56.6,12.8,79.2,29.1
			l18.6,15.8C417.5,138.2,434.4,172.7,437.4,211.1z"/>
	</g>
</g>
<g>
	<g>
		<path class="st0" d="M359.7,400.2c31.3-32.5,50.6-76.6,50.6-125.2c0-6.7-5.4-12.1-12.1-12.1H242.1V106.8c0-6.7-5.4-12.1-12.1-12.1
			c-99.5,0-180.4,80.9-180.4,180.4s80.9,180.4,180.4,180.4c42,0,80.8-14.5,111.5-38.7L359.7,400.2z M328.5,396
			c-26.9,21.9-61.2,35.1-98.5,35.1c-86.1,0-156.1-70-156.1-156.1c0-82,63.6-149.5,144-155.7V275c0,6.7,5.4,12.1,12.1,12.1h155.7
			c-2.7,35.1-17.1,67-39.2,91.8L328.5,396z"/>
	</g>
</g>
</svg>
