<?xml version="1.0" encoding="utf-8"?>
<!-- Generator: Adobe Illustrator 23.0.3, SVG Export Plug-In . SVG Version: 6.00 Build 0)  -->
<svg version="1.1" id="Capa_1" xmlns="http://www.w3.org/2000/svg" xmlns:xlink="http://www.w3.org/1999/xlink" x="0px" y="0px"
	 viewBox="0 0 512 512" style="enable-background:new 0 0 512 512;" xml:space="preserve">
<style type="text/css">
	.st0{fill:#0691E0;}
</style>
<g>
	<g>
		<g>
			<path class="st0" d="M44.7,509.8c-22.3,0-40.5-18.2-40.5-40.5V318.9c0-22.3,18.2-40.5,40.5-40.5h16.7c13,0,25.1,6.2,32.8,16.7
				h11.5c5.3-24.3,26.7-41.7,51.8-41.8c4.9,0,9.7,0.7,14.4,2.1c11.5-11.9,27.5-18.8,44.1-18.8c7.8,0,15.4,1.5,22.6,4.3
				c4.8-5.6,11.2-9.6,18.4-11.5c8.5-29.6,24.5-56.6,46.3-78.3c-1.6-2.9-3.1-5.9-4.4-9c-0.6,0-1.1,0-1.7,0c-0.3,0-0.6,0-0.9,0
				c-12.8,0-24.9-5.5-33.4-15.1c-18.3-21.4-31.3-62.5-32.7-67.1c-1-3.2-0.5-6.7,1.3-9.5c1.8-2.8,4.8-4.7,8.2-5
				c6.8-0.7,13.7-1.1,20.6-1.1c16.6,0,33.1,2.1,49.1,6.4c3.1-3.8,6.6-7.4,10.3-10.5C356,9.7,414,3.3,456.2,3.3
				c25.7,0,44.4,2.4,45.2,2.6c3.2,0.4,6.1,2.2,7.9,5c1.8,2.7,2.3,6.1,1.5,9.2c-1.1,4.1-27.9,100.6-64.7,149
				c-13.7,18-34.5,28.9-57.1,29.9c-1.7,0.1-3.4,0.2-5.2,0.2c-24.7-0.1-48.7-10.3-65.9-27.9c-0.4-0.4-0.7-0.8-1.1-1.2
				c-16.7,17.3-29.3,38.3-36.8,61.1c9.8,4.1,17.4,12.1,20.7,22.3c1,0,2-0.1,3-0.1c25.1,0,48.1,12.5,61.9,33.4c0.3,0,0.6,0,0.8,0
				c21.3,0,39.9,15.5,43.9,36.3c10.3,4,18.6,12.2,22.8,22.3l33.2-11.1c3.5-1.2,7.1-1.8,10.8-1.8c13.3,0,25.4,7.8,31,19.8
				c7.3,15.8,1.6,34.5-13.2,43.6l-156.6,95.3c-10.9,6.7-23.5,10.2-36.3,10.2H85.8c-7,5.4-15.6,8.3-24.3,8.4H44.7z M44.7,301
				c-9.9,0-17.9,8.1-17.9,17.9v150.3c0,9.9,8.1,17.9,17.9,17.9h16.7c9.9,0,17.9-8.1,17.9-17.9V318.9c0-9.9-8.1-17.9-17.9-17.9H44.7z
				 M302,478.8c8.7,0,17.1-2.4,24.5-6.9l156.6-95.3c2.8-1.7,4.8-4.5,5.4-7.7c0.6-3.2-0.1-6.6-2.1-9.2c-2.2-2.9-5.7-4.7-9.3-4.7
				c-1.2,0-2.5,0.2-3.7,0.6l-42.1,14c-1.9,1.4-4.1,2.2-6.5,2.2c0,0-0.1,0-0.2,0l-105.9,35.3c-4.6,1.5-9.3,2.3-14.1,2.3h-74.2
				c-12.7,0-24.9,3.7-35.4,10.7l-6.1,4.1c-1.9,1.3-4,1.9-6.3,1.9c-1.7,0-3.4-0.4-5-1.2c-3.6-1.8-6-5.4-6.3-9.4
				c-0.3-4,1.7-7.9,5.1-10.1l6.1-4.1c14.2-9.5,30.8-14.5,47.9-14.5h49.3c3.8-6,4-13.7,0.3-19.9l-0.7-1.2
				c-5.5-9.1-15.5-14.8-26.1-14.8h-43.7c-19.8,0-39.2-6.8-54.7-19.2c-11.5-9.2-25.9-14.2-40.6-14.2h-12.1c0,0.4,0,0.7,0.1,1.1
				l0,150.5c0,3.3-0.5,6.5-1.3,9.6H302z M304.6,387c2.4,0,4.7-0.4,7-1.1l99.8-33.3c-2.6-5.1-7.5-8.7-13.4-9.5
				c-5.5-0.8-9.7-5.6-9.7-11.2c0-0.2,0-0.5,0-0.9c-0.2-6.6-3.2-12.7-8.4-16.8c-3.9-3.1-8.9-4.9-13.9-4.9c-1.5,0-3,0.2-4.5,0.5
				c-0.8,0.2-1.5,0.2-2.3,0.2c-4.3,0-8.1-2.4-10-6.1c-8.8-17.3-26.3-28-45.6-28c-3.6,0-7.1,0.4-10.5,1c-0.7,0.2-1.5,0.2-2.3,0.2
				c-2.7,0-5.3-1-7.4-2.7c-2.6-2.3-4.1-5.7-3.9-9.2c0-0.2,0.1-0.8,0.1-1.2c-0.3-7.1-5.9-12.7-12.9-13.1c-0.2,0-0.5,0.1-0.8,0.1
				c-0.3,0-0.5,0-0.8-0.1c-5.4,0.3-10.1,3.7-12,8.8c-1.2,3.2-3.8,5.6-7,6.7c-1.1,0.4-2.3,0.6-3.6,0.6c-2.1,0-4.2-0.6-6-1.8
				c-6.2-4-13.4-6-20.7-6c-12.5,0-24.2,6-31.5,16.2c-2.1,2.9-5.6,4.7-9.2,4.7c-1.7,0-3.3-0.4-4.8-1.1c-4-2-8.5-3-13-3.1
				c-13.1,0-24.5,8.3-28.7,20.5c14.6,2.5,28.3,8.6,40,17.8c11.5,9.2,25.9,14.2,40.6,14.2H253c18.5,0.1,35.9,9.9,45.5,25.8l0.7,1.2
				c5.7,9.6,7.3,20.8,4.6,31.5H304.6z M333,154.3c0.3,0.4,0.7,0.8,1,1.1c13.1,13.4,31.3,21.1,50,21.1c1.2,0,2.5,0,3.7-0.1
				c16-0.7,30.7-8.3,40.5-21c26.3-34.6,48-98.8,57.1-128.4c-7.2-0.5-17.2-1-28.7-1c-38.7,0-91.3,5.5-122.3,31.6
				c-12.6,10.9-20.1,26.7-20.5,43.3c-0.5,11.8,1.8,23.5,6.6,34.1c17.6-15.3,37-28.5,57.7-39.2c1.6-0.8,3.3-1.2,5-1.2
				c4.3,0,8.2,2.4,10.1,6.3c1.3,2.7,1.5,5.8,0.5,8.6c-1,2.9-3,5.2-5.7,6.5C368.3,126.5,349.7,139.4,333,154.3z M280.1,112.6
				c3.2,3.5,7.5,5.9,12.2,6.7c-1.1-6.4-1.4-12.9-1.2-19.4c0.5-10,2.6-19.7,6.4-28.9c-11.7-2.6-23.6-4-35.6-4c-1.8,0-3.6,0-5.5,0.1
				C262.1,83.3,270.1,98.6,280.1,112.6z"/>
			<path class="st0" d="M199.7,309.3c-0.8,0-1.5-0.1-2.3-0.2c-6.1-1.2-10.1-7.2-8.8-13.3c3.1-14.9,16.3-25.7,31.5-25.7
				c7,0,13.8,2.3,19.3,6.4c4.9,3.7,5.9,10.8,2.2,15.8c-2.1,2.8-5.5,4.5-9,4.5c-2.4,0-4.8-0.8-6.7-2.2c-1.6-1.2-3.7-1.9-5.7-1.9
				c-4.6,0-8.5,3.2-9.4,7.7C209.7,305.5,205,309.3,199.7,309.3C199.7,309.3,199.7,309.3,199.7,309.3z"/>
			<path class="st0" d="M323.3,327.2c-5.6,0-10.4-4.2-11.2-9.7c-0.3-2-1.2-4-2.7-5.4c-1.8-1.8-4.2-2.8-6.8-2.8
				c-1.9,0-3.7,0.5-5.3,1.6c-1.8,1.2-4,1.9-6.2,1.9l0,0c-1.7,0-3.5-0.4-5-1.2c-3.6-1.8-6-5.4-6.2-9.4c-0.2-4,1.7-7.9,5-10.1
				c5.3-3.5,11.4-5.3,17.7-5.3c4.6,0,9,1,13.2,2.8c10.1,4.5,17.1,13.8,18.7,24.8c0.9,6.2-3.4,11.9-9.6,12.8
				C324.4,327.2,323.8,327.2,323.3,327.2L323.3,327.2L323.3,327.2z"/>
		</g>
	</g>
</g>
</svg>
