<?xml version="1.0" encoding="utf-8"?>
<!-- Generator: Adobe Illustrator 23.0.3, SVG Export Plug-In . SVG Version: 6.00 Build 0)  -->
<svg version="1.1" id="Capa_1" xmlns="http://www.w3.org/2000/svg" xmlns:xlink="http://www.w3.org/1999/xlink" x="0px" y="0px"
	 viewBox="0 0 490 490" style="enable-background:new 0 0 490 490;" xml:space="preserve">
<style type="text/css">
	.st0{fill:#0691E0;}
</style>
<g>
	<g>
		<path class="st0" d="M394,451.5c-2.3,0-4.6-0.8-6.4-2.3l-98.6-83.6H70.6c-37.3,0-67.6-30.5-67.6-68V103.5c0-37.5,30.3-68,67.6-68
			h351.2c37.3,0,67.6,30.5,67.6,68v194.1c0,37.5-30.3,68-67.6,68h-17.9v76c0,3.9-2.2,7.4-5.7,9C396.9,451.2,395.5,451.5,394,451.5z
			 M70.6,55.3c-26.4,0-47.9,21.6-47.9,48.1v194.1c0,26.5,21.5,48.1,47.9,48.1h222.1c2.3,0,4.6,0.8,6.4,2.3l85.1,72.2v-64.6
			c0-5.5,4.4-9.9,9.9-9.9h27.8c26.4,0,47.9-21.6,47.9-48.1V103.5c0-26.5-21.5-48.1-47.9-48.1L70.6,55.3z"/>
	</g>
	<g>
		<g>
			<path class="st0" d="M405.3,146.7h-318c-5.5,0-9.9-4.4-9.9-9.9c0-5.5,4.4-9.9,9.9-9.9h318c5.5,0,9.9,4.4,9.9,9.9
				C415.1,142.2,410.7,146.7,405.3,146.7z"/>
		</g>
		<g>
			<path class="st0" d="M405.3,210.2h-318c-5.5,0-9.9-4.4-9.9-9.9c0-5.5,4.4-9.9,9.9-9.9h318c5.5,0,9.9,4.4,9.9,9.9
				C415.1,205.8,410.7,210.2,405.3,210.2z"/>
		</g>
		<g>
			<path class="st0" d="M405.3,273.8h-318c-5.5,0-9.9-4.4-9.9-9.9c0-5.5,4.4-9.9,9.9-9.9h318c5.5,0,9.9,4.4,9.9,9.9
				C415.1,269.4,410.7,273.8,405.3,273.8z"/>
		</g>
	</g>
</g>
</svg>
