<?xml version="1.0" encoding="utf-8"?>
<!-- Generator: Adobe Illustrator 23.0.3, SVG Export Plug-In . SVG Version: 6.00 Build 0)  -->
<svg version="1.1" id="Capa_1" xmlns="http://www.w3.org/2000/svg" xmlns:xlink="http://www.w3.org/1999/xlink" x="0px" y="0px"
	 viewBox="0 0 600.8 600.8" style="enable-background:new 0 0 600.8 600.8;" xml:space="preserve">
<style type="text/css">
	.st0{fill:#0691E0;}
</style>
<g>
	<g>
		<path class="st0" d="M205.5,367.9c-21.7,0-39.4-17.7-39.4-39.4c0-21.7,17.7-39.3,39.4-39.3c21.7,0,39.4,17.7,39.4,39.3
			C244.8,350.3,227.2,367.9,205.5,367.9z"/>
		<path class="st0" d="M413.8,500.1l-205.9,39.2L3.8,501.1l24.8-211.6L2.5,73.1l192.4,81.2L413,50.2L597,120.1l-25.5,201.2
			l26.4,221.4L413.8,500.1z M208.3,515.3l59-11.2c-1-18.4,0.9-51.4,23.2-78.3c19.4-23.5,50.1-36.5,91.2-38.8l-7.5-76.4l-90.6,13.7
			c0.1,1.5,0.2,2.9,0.2,4.4c0,18.6-6.7,36.7-18.8,50.8c-11.7,13.6-27.7,22.8-45.2,26.1L208.3,515.3z M570.5,512.1l-22.1-185.8
			l-150.8-19.1l16.2,169.7l54.4,11.7l-13.3-129.1l77,9.2l0.9,11.5l-64.9-7.5l12.1,118.7L570.5,512.1z M185,511.1l11-104.8
			c-17.1-2.1-33.2-9.8-45.6-22.1l-38.2,30.6l-12.5,80.2L185,511.1z M382.8,398.4c-38,2.1-66.1,13.7-83.5,34.7
			c-19.1,23-21.2,52.1-20.6,68.7l112.1-21.4L382.8,398.4z M88.5,493l13.1-84.3l41.3-33.2c-10.3-13.7-15.8-29.9-15.8-47
			c0-0.8,0-1.5,0.1-2.3l-77.5-12L29.8,482L88.5,493z M205.5,269.3c-32.7,0-59.3,26.6-59.3,59.3c0,32.7,26.6,59.3,59.2,59.3
			c32.7,0,59.3-26.6,59.3-59.3C264.7,295.9,238.1,269.3,205.5,269.3z M131.4,303.1c9.3-27.1,33.2-47.2,61.5-51.8l-8.6-75.9
			L121,148.8c-1,12.1-4.7,28.3-16.2,42.1c-13.1,15.8-33.4,25-60.3,27.1l7.5,72.9L131.4,303.1z M550.1,302.7l9.1-72.1l-156.4-39.5
			l-7.3,93L550.1,302.7z M252.9,266.4c11.7,9,20.6,20.9,25.8,34.7l93.5-14.1l7.5-101l-100.9,13C275.3,211.4,264.9,246.4,252.9,266.4
			z M216.5,251c9.4,1.3,18.4,4.4,26.8,9c13-21.9,25.3-67.2,25.4-67.7l1-3.7l111-14.3l8-86.4l-181,86.4L216.5,251z M560.7,219.2
			l10.6-83.7L414.1,76.3l-10.1,103.2L560.7,219.2z M43.2,206.5c23.9-1.8,41.7-9.6,52.8-23c10.5-12.7,13.3-28.3,13.7-39.5L31,110.8
			L43.2,206.5z"/>
	</g>
</g>
</svg>
