<?xml version="1.0" encoding="utf-8"?>
<!-- Generator: Adobe Illustrator 23.0.3, SVG Export Plug-In . SVG Version: 6.00 Build 0)  -->
<svg version="1.1" id="Capa_1" xmlns="http://www.w3.org/2000/svg" xmlns:xlink="http://www.w3.org/1999/xlink" x="0px" y="0px"
	 viewBox="0 0 512 512" style="enable-background:new 0 0 512 512;" xml:space="preserve">
<style type="text/css">
	.st0{fill:#0691E0;}
</style>
<g>
	<g>
		<path class="st0" d="M274.4,422.5c-8.5,0-16.5-3.2-22.7-8.9l-23.8-22l-17.2,18c-6.3,6.5-15.1,10.3-24.2,10.3
			c-8.7,0-16.9-3.3-23.1-9.2l-4.3-4.1c-3.5-3.3-6.1-7.3-7.9-11.9c-5,2.8-10.6,4.3-16.4,4.3c-8.7,0-16.9-3.3-23.2-9.2l-4.3-4.1
			c-4-3.8-7-8.6-8.7-14c-3.5,1.2-7.2,1.8-10.9,1.8c-8.7,0-16.9-3.3-23.2-9.2l-4.3-4.1c-6.6-6.2-10.4-15-10.4-24.1
			c0-4.6,1-9.3,3.1-13.7c-4.8-1.6-8.9-4-12.4-7.3l-4.3-4.1c-6.6-6.2-10.4-15-10.4-24.1c0-8.6,3.3-16.8,9.2-23l19.6-20.4l-42.7-36.4
			c-7.4-6.3-11.6-15.4-11.6-25c0-8.1,3-15.8,8.4-21.9l47.5-53.2c4-4.4,9-7.9,15-10.3c5.7-2.3,11.6-3.5,17.7-3.5
			c5.7,0,10.9,1,15.7,3.1l26.1,11.1c4.1,1.8,10.5,2.9,16.7,2.9h0.5c6.2,0,12.6-1.1,16.7-2.8l26.1-11.1c6.8-2.9,14.7-4.3,23.7-4.4
			c10,0,18.7,1.8,25.8,5.3c5.6,2.8,10.6,5.3,14.2,7l3.5-2.5c7.9-5.5,18-8.4,29.2-8.4c7.8,0,14.8,1.5,20.8,4.4l38.3,18.5
			c3.2,1.6,7.9,2.5,12.7,2.5l0.4,0c6.1,0,12.8-1.6,16.7-4.1l39.1-24.3c5.5-3.4,12-5.3,18.8-5.3c11.4,0,21.9,5,28.7,13.6l40.1,51.3
			c5,6.4,7.7,14.4,7.7,23.1c0,9.6-3.4,18.6-9.4,25.4l-66.7,73.7l6.1,5.6c6.8,6.3,10.7,15.2,10.7,24.4c0,8.5-3.2,16.5-8.9,22.7
			l-4,4.3c-4.8,5.1-11,8.5-18,9.8c0.3,1.9,0.5,3.7,0.5,5.4c0,8.4-3.2,16.5-8.9,22.7l-4,4.3c-6.3,6.7-15.3,10.6-24.6,10.6
			c-1.9,0-4-0.2-6.2-0.7c-1.2,6.2-4,11.8-8.2,16.3l-4,4.3c-6.3,6.8-15.3,10.6-24.6,10.6c-8.5,0-16.6-3.2-22.8-8.9l-7.5-6.9
			c-1.5,4-3.7,7.6-6.5,10.6l-4,4.3c-6.3,6.7-15.2,10.6-24.5,10.6H274.4z M266.1,398.2c2.3,2.1,5.2,3.3,8.4,3.3c3.5,0,6.7-1.4,9-3.9
			l4-4.3c2.1-2.3,3.3-5.2,3.3-8.3c0-3.1-1.2-6.1-3.5-8.4l-30-27.7l-1.7-1.6l1.3-1.4l13.1-14.1l1.4,1.5l60,55.4
			c2.3,2.1,5.3,3.2,8.4,3.3c3.5,0,6.7-1.4,9.1-3.9l4-4.3c2.1-2.3,3.3-5.2,3.3-8.3c0-3.4-1.3-6.5-3.8-8.8L291,309.5l14.4-15.4
			l69.2,63.9c2.3,2.1,5.2,3.2,8.4,3.3c3.5,0,6.7-1.4,9.1-3.9l4-4.3c2.1-2.3,3.3-5.2,3.3-8.4c0-3.5-1.4-6.7-3.9-9l-74-68.5l14.4-15.4
			l69.2,63.9c2.3,2.1,5.2,3.3,8.4,3.3c3.5,0,6.7-1.4,9.1-3.9l4-4.3c2.1-2.3,3.3-5.2,3.3-8.3c0-3.5-1.4-6.7-3.9-9L375,246.4
			c-8.8-8.2-24.6-21-34.4-28l-44-31.5c-3.3-2.4-8.9-4-14.2-4H282c-4.5,0-9,1.1-12,2.9l-15.9,9.6c-5.4,3.2-11.7,5-18.2,5
			c-11.5,0-22.4-5.3-29-14.2l-3.5-4.7l0,0c-4.2-5.6-6.5-12.6-6.5-19.6c0-10.6,5.2-20.6,14-26.8l23.9-16.8c-1.3-0.6-2.6-1.3-4-2
			c-3.7-1.9-10-3.1-16.1-3.1l-0.5,0c-5.6,0-11.4,1-15.1,2.7l-26.1,11.1c-7.1,3-15.6,4.5-25.2,4.6c-9.7,0-18.2-1.6-25.2-4.6
			l-26.1-11.1c-2-0.9-4.6-1.4-7.3-1.4c-3.2,0-6.7,0.7-9.7,1.9c-2.9,1.2-5.5,2.9-7.2,4.8l-47.5,53.2c-2,2.2-3,4.9-3,7.9
			c0,3.5,1.5,6.7,4.2,9l43.6,37.2l8.9-9.3c6.3-6.5,15.1-10.3,24.2-10.3c8.7,0,16.9,3.3,23.1,9.2l4.9,4.6v0
			c5.5,5.5,8.8,12.6,9.5,20.4c0.3,0,0.6,0,0.9,0c8.7,0,16.9,3.3,23.1,9.2l4.3,4.1c6.6,6.2,10.4,15,10.4,24.1c0,2.9-0.4,5.9-1.3,8.9
			c5.5,1.4,10.6,4.2,14.7,8.1l4.4,4.2l0.1,0.2c0.4,0.6,8.9,13.3,10,22.1c8.6,0,16.8,3.3,23,9.2l4.3,4.1c6.6,6.3,10.4,15.1,10.4,24.1
			c0,4.6-1.1,9.3-3.1,13.7L266.1,398.2z M206.4,344.9c-3.4,0-6.6,1.3-9,3.8L173.2,374c-2.2,2.3-3.4,5.3-3.4,8.5
			c0,3.4,1.4,6.6,3.8,8.9l4.3,4.1c2.3,2.2,5.3,3.4,8.5,3.4c3.4,0,6.6-1.4,8.9-3.8l24.3-25.3c2.2-2.3,3.4-5.3,3.4-8.5
			c0-3.4-1.4-6.6-3.8-8.9l-4.3-4.1C212.6,346.2,209.6,345,206.4,344.9z M120.7,354c-1.8,2.2-2.7,4.8-2.7,7.6c0,3.4,1.3,6.6,3.8,8.9
			l4.3,4.1c2.3,2.2,5.3,3.4,8.5,3.4c3.4,0,6.6-1.4,8.9-3.8l38.4-40.1c2.2-2.3,3.4-5.3,3.4-8.5c0-3.4-1.4-6.6-3.8-8.9l-4.3-4.1
			c-2.3-2.2-5.3-3.4-8.5-3.4c-3,0-5.9,1.1-8.2,3.2L120.7,354z M79.1,349.2c2.3,2.2,5.3,3.4,8.5,3.4c3.4,0,6.6-1.4,9-3.8l57.4-59.9
			c2.2-2.3,3.4-5.3,3.4-8.5c0-3.4-1.4-6.6-3.8-8.9l-4.3-4.1c-2.3-2.2-5.3-3.4-8.5-3.4c-3.2,0-6.2,1.2-8.5,3.4
			c-2.6,2.8-44.7,46.6-57.9,60.3c-2.2,2.3-3.4,5.3-3.4,8.5c0,3.4,1.3,6.5,3.7,8.8L79.1,349.2z M102.4,229.9c-3.4,0-6.6,1.3-9,3.8
			l-43.1,44.9c-2.2,2.3-3.4,5.2-3.4,8.5c0,3.4,1.4,6.6,3.8,8.9l4.3,4.1c2.3,2.2,5.3,3.4,8.5,3.4c2.5,0,5-0.8,7-2.2
			c10.6-11.1,43.8-45.6,46.2-48.1c1.4-2,2.1-4.4,2.1-6.8c0-2.3-2.4-6.7-4-9l-4.1-3.9C108.6,231.1,105.6,229.9,102.4,229.9z
			 M282.2,161.8c10.2,0,19.5,2.8,26.8,8l44,31.5c10.7,7.7,26.7,20.7,36.4,29.7l29.3,27.1l66.5-73.5c2.5-2.7,4-7,4-11.3
			c0-3.8-1.2-7.5-3.2-10.2l-40.1-51.3c-2.6-3.4-7.3-5.5-12-5.5c-2.8,0-5.4,0.7-7.6,2.1l-39.1,24.3c-7.7,4.7-17.4,7.2-28.1,7.3
			c-8.4,0-15.8-1.6-22.2-4.6l-38.3-18.5c-2.9-1.4-7.2-2.3-11.4-2.3l-0.4,0c-6.2,0-13,1.8-16.8,4.6l-47,33c-3.2,2.2-5,5.7-5,9.6
			c0,2.5,0.8,4.8,2.3,6.9l3.6,4.8c2.6,3.5,7.3,5.7,12,5.7c2.7,0,5.2-0.7,7.3-1.9l15.9-9.5C265.5,163.9,273.5,161.8,282.2,161.8
			L282.2,161.8z"/>
	</g>
</g>
</svg>
